# xmcd
#
# Track frame offsets:
#	150
#	15455
#	76516
#	199421
#	229194
#
# Disc length: 3557 seconds
#
# Revision: 1
# Processed by: cddbd v1.5.2PL0 Copyright (c) Steve Scherf et al.
# Submitted via: audiograbber 1.83.01
#
DISCID=2f0de305
DTITLE=Grateful Dead - 72-07-18 Roosevelt Stadium, Jersey City NJ
DYEAR=1900
DGENRE=
TTITLE0=Tuning
TTITLE1=Truckin'
TTITLE2=Dark Star
TTITLE3=Comes A Time
TTITLE4=Sugar Magnolia
EXTD=
EXTT0=
EXTT1=
EXTT2=
EXTT3=
EXTT4=
PLAYORDER=
